<svg xmlns="http://www.w3.org/2000/svg" width="33" height="33" viewBox="0 0 33 33" fill="none">
<path d="M29.3333 3.66667H25.6667V1.83333C25.6667 0.825 24.8417 0 23.8333 0H9.16667C8.15833 0 7.33333 0.825 7.33333 1.83333V3.66667H3.66667C1.65 3.66667 0 5.31667 0 7.33333V9.16667C0 13.8417 3.52 17.655 8.04833 18.2233C9.20333 20.9733 11.6783 23.045 14.6667 23.65V29.3333H9.16667C8.15833 29.3333 7.33333 30.1583 7.33333 31.1667C7.33333 32.175 8.15833 33 9.16667 33H23.8333C24.8417 33 25.6667 32.175 25.6667 31.1667C25.6667 30.1583 24.8417 29.3333 23.8333 29.3333H18.3333V23.65C21.3217 23.045 23.7967 20.9733 24.9517 18.2233C29.48 17.655 33 13.8417 33 9.16667V7.33333C33 5.31667 31.35 3.66667 29.3333 3.66667ZM3.66667 9.16667V7.33333H7.33333V14.3367C5.20667 13.5667 3.66667 11.55 3.66667 9.16667ZM29.3333 9.16667C29.3333 11.55 27.7933 13.5667 25.6667 14.3367V7.33333H29.3333V9.16667Z" fill="white"/>
</svg> 