<svg xmlns="http://www.w3.org/2000/svg" width="19" height="16" viewBox="0 0 19 16" fill="none">
  <path d="M14.833 15.413C12.3641 15.413 11.0737 13.1161 10.635 12.1268H7.96821C7.52948 13.1505 6.23911 15.413 3.7702 15.413C0.423828 15.413 0.423828 12.6 0.423828 11.4042C0.423828 9.95039 2.7465 5.38247 3.21103 4.52222C3.27352 4.42771 3.3595 4.35105 3.46055 4.29978C3.56159 4.2485 3.67422 4.22437 3.7874 4.22974H14.8158C14.9349 4.23046 15.0515 4.2637 15.1531 4.32586C15.2546 4.38801 15.3373 4.47673 15.3922 4.58244C15.8567 5.44269 18.1794 10.0192 18.1794 11.4644C18.1794 12.6344 18.1794 15.413 14.833 15.413ZM7.52948 10.8709H11.0737C11.2089 10.8696 11.341 10.9115 11.4508 10.9904C11.5606 11.0693 11.6425 11.1811 11.6845 11.3096C11.6845 11.3096 12.6824 14.157 14.833 14.157C16.7427 14.157 16.889 13.0301 16.889 11.4386C16.889 10.6472 15.504 7.60191 14.4201 5.4857H4.18311C3.0992 7.60191 1.7142 10.6472 1.7142 11.4386C1.7142 13.0301 1.86044 14.157 3.7702 14.157C5.92082 14.157 6.9101 11.3354 6.9187 11.3096C6.96072 11.1811 7.04257 11.0693 7.15238 10.9904C7.2622 10.9115 7.39428 10.8696 7.52948 10.8709Z" fill="white"/>
  <path d="M9.30137 5.48582C9.15068 5.48646 9.00452 5.43434 8.88825 5.33849C8.77197 5.24264 8.69291 5.10911 8.66478 4.96107C8.57899 4.40592 8.6048 3.83923 8.74069 3.29418C8.87659 2.74912 9.11984 2.23665 9.45621 1.78676C9.92226 1.29245 10.4938 0.909661 11.1283 0.666884C11.7628 0.424106 12.4439 0.327599 13.1209 0.38455C13.2056 0.38455 13.2895 0.401239 13.3678 0.433662C13.4461 0.466086 13.5172 0.51361 13.5771 0.573521C13.637 0.633432 13.6845 0.704557 13.7169 0.782835C13.7494 0.861112 13.7661 0.94501 13.7661 1.02974C13.7661 1.11446 13.7494 1.19836 13.7169 1.27664C13.6845 1.35492 13.637 1.42604 13.5771 1.48595C13.5172 1.54586 13.4461 1.59339 13.3678 1.62581C13.2895 1.65823 13.2056 1.67492 13.1209 1.67492C12.6355 1.62546 12.1451 1.68301 11.6844 1.84353C11.2236 2.00405 10.8037 2.26363 10.4541 2.60399C10.0146 3.21927 9.82973 3.98048 9.93795 4.7288C9.95279 4.81242 9.95098 4.89814 9.93263 4.98105C9.91427 5.06396 9.87972 5.14243 9.83097 5.21197C9.78222 5.2815 9.72022 5.34072 9.64853 5.38624C9.57684 5.43176 9.49687 5.46268 9.4132 5.47722L9.30137 5.48582Z" fill="white"/>
</svg> 