<svg xmlns="http://www.w3.org/2000/svg" width="20" height="18" viewBox="0 0 20 18" fill="none">
  <path d="M1.35742 4.37556C1.35742 3.1711 1.35742 2.56887 1.59183 2.10883C1.79801 1.70416 2.12702 1.37516 2.53168 1.16897C2.99172 0.93457 3.59395 0.93457 4.79842 0.93457C6.00288 0.93457 6.60511 0.93457 7.06515 1.16897C7.46982 1.37516 7.79882 1.70416 8.00501 2.10883C8.23941 2.56887 8.23941 3.1711 8.23941 4.37556V12.978C8.23941 14.1825 8.23941 14.7847 8.00501 15.2448C7.79882 15.6494 7.46982 15.9785 7.06515 16.1846C6.60511 16.419 6.00288 16.419 4.79842 16.419C3.59395 16.419 2.99172 16.419 2.53168 16.1846C2.12702 15.9785 1.79801 15.6494 1.59183 15.2448C1.35742 14.7847 1.35742 14.1825 1.35742 12.978V4.37556Z" stroke="#F5F5F5" stroke-width="1.5" stroke-linecap="round" stroke-linejoin="round"/>
  <path d="M4.79834 12.978H4.80607" stroke="#F5F5F5" stroke-width="2" stroke-linecap="round" stroke-linejoin="round"/>
  <path d="M1.35742 4.37549H8.23941" stroke="#F5F5F5" stroke-width="1.5" stroke-linecap="round" stroke-linejoin="round"/>
  <path d="M9.48554 5.46673C9.18024 4.32256 9.02759 3.75047 9.13272 3.25379C9.2252 2.8169 9.45304 2.42062 9.78358 2.12175C10.1594 1.78198 10.7291 1.62869 11.8685 1.32212C13.0079 1.01554 13.5776 0.862246 14.0722 0.967818C14.5073 1.06068 14.9019 1.28947 15.1996 1.6214C15.5379 1.99875 15.6906 2.57084 15.9959 3.71501L18.1764 11.8869C18.4817 13.0311 18.6344 13.6031 18.5292 14.0998C18.4368 14.5367 18.2089 14.933 17.8784 15.2319C17.5026 15.5716 16.9329 15.7249 15.7935 16.0315C14.6541 16.3381 14.0843 16.4914 13.5897 16.3858C13.1547 16.2929 12.76 16.0641 12.4624 15.7322C12.124 15.3549 11.9714 14.7828 11.6661 13.6386L9.48554 5.46673Z" stroke="#F5F5F5" stroke-width="1.5" stroke-linecap="round" stroke-linejoin="round"/>
  <path d="M14.9331 12.7158L14.9406 12.7138" stroke="#F5F5F5" stroke-width="2" stroke-linecap="round" stroke-linejoin="round"/>
  <path d="M9.95996 5.23579L15.5517 3.51514" stroke="#F5F5F5" stroke-width="1.5" stroke-linecap="round" stroke-linejoin="round"/>
</svg> 