<svg xmlns="http://www.w3.org/2000/svg" width="13" height="20" viewBox="0 0 13 20" fill="none">
  <path d="M8.96276 4.30145C8.96276 5.72676 7.45026 7.31232 6.38202 7.31232C5.31377 7.31232 3.80127 5.72676 3.80127 4.30145C3.80127 2.87614 4.95671 1.7207 6.38202 1.7207C7.80732 1.7207 8.96276 2.87614 8.96276 4.30145Z" stroke="#F5F5F5" stroke-width="1.5"/>
  <path d="M9.85886 7.74268C11.169 8.89137 12.018 10.8369 11.2556 12.6505C11.0913 13.0413 10.7145 13.2947 10.2975 13.2947C9.8735 13.2947 9.1771 13.1588 9.04178 13.7106L8.09787 17.5601C7.90105 18.3628 7.19369 18.9259 6.38219 18.9259C5.57068 18.9259 4.86332 18.3628 4.6665 17.5601L3.72259 13.7106C3.58728 13.1588 2.89087 13.2947 2.46688 13.2947C2.0499 13.2947 1.67304 13.0413 1.50879 12.6505C0.746417 10.8369 1.59541 8.89137 2.90556 7.74268" stroke="#F5F5F5" stroke-width="1.5" stroke-linecap="round"/>
</svg> 