<svg xmlns="http://www.w3.org/2000/svg" width="20" height="19" viewBox="0 0 20 19" fill="none">
  <path d="M7.84627 13.7571C7.59355 13.2067 6.55841 12.4031 6.30084 12.2872C5.71162 11.9578 5.02662 11.8259 4.35206 11.9119C3.67751 11.9978 3.05109 12.2968 2.56997 12.7626C2.08885 13.2283 1.7799 13.8347 1.69103 14.4877C1.60217 15.1407 1.73836 15.8039 2.07848 16.3744C2.4186 16.9448 2.94365 17.3907 3.57219 17.6428C4.20074 17.895 4.89766 17.9393 5.55489 17.7689C6.21211 17.5986 6.7929 17.223 7.20719 16.7006C7.62148 16.1781 7.84612 15.5379 7.84627 14.8792V4.48534C7.84627 4.01785 8.17016 3.61275 8.62618 3.50986L18.1813 1.354L18.1812 12.7437M18.1812 12.7437L18.1813 13.866C18.1812 14.5247 17.9565 15.1649 17.5422 15.6873C17.1279 16.2098 16.5472 16.5854 15.8899 16.7557C15.2327 16.9261 14.5358 16.8818 13.9072 16.6296C13.2787 16.3775 12.7536 15.9316 12.4135 15.3611C12.0734 14.7907 11.9372 14.1275 12.0261 13.4745C12.1149 12.8215 12.4239 12.2151 12.905 11.7494C13.3861 11.2836 14.0126 10.9846 14.6871 10.8987C15.3617 10.8127 16.0467 10.9446 16.6359 11.2739C16.8934 11.3899 17.9283 12.1933 18.1812 12.7437Z" stroke="white" stroke-width="2" stroke-linecap="round" stroke-linejoin="round"/>
</svg> 